<svg width="20" height="20" viewBox="0 0 20 20" fill="none" xmlns="http://www.w3.org/2000/svg">
<path d="M4.57769 11.8111C4.57769 11.8111 2.27769 14.4444 2.12213 18.4278C2.11102 18.7611 1.82213 19.0167 1.4888 19.0056L1.13325 18.9889C0.772134 18.9722 0.511023 18.6556 0.555468 18.2944C1.07213 13.9222 3.97769 11.3778 4.10547 11.2611L4.58325 11.8111H4.57769Z" fill="#232323"/>
<path d="M14.9777 1.28333L5.15545 6.12222C4.85545 6.27222 4.72767 6.63333 4.87767 6.93888L5.561 8.32222L4.79989 8.69444C4.49989 8.84444 4.37211 9.20555 4.52211 9.51111L6.06656 12.6389C6.21656 12.9389 6.57767 13.0667 6.88322 12.9167L7.63878 12.5444L8.32211 13.9278C8.47211 14.2278 8.83322 14.3556 9.13878 14.2056L18.9554 9.36666C19.2554 9.21666 19.3832 8.85555 19.2332 8.55L15.7888 1.55555C15.6388 1.25555 15.2777 1.12777 14.9721 1.27777L14.9777 1.28333ZM17.4054 7.91666C17.3166 8.10555 17.1777 8.27222 16.9943 8.37777C16.761 8.51666 16.4832 8.56111 16.211 8.5C15.9443 8.42777 15.7166 8.26666 15.5721 8.02777C15.4332 7.79444 15.3888 7.51111 15.4499 7.24444L14.1332 6.91666C13.9943 7.47222 13.4388 7.81111 12.8721 7.67222C12.3166 7.53889 11.9777 6.97222 12.1166 6.41666L10.7999 6.08888C10.7277 6.35555 10.5666 6.58333 10.3277 6.72777C10.0943 6.87222 9.811 6.91111 9.54433 6.85C9.08322 6.73888 8.77211 6.32777 8.761 5.87777L14.361 3.11666C14.661 2.96666 15.0277 3.09444 15.1777 3.39444L17.411 7.92777L17.4054 7.91666ZM9.21656 12.6556L8.26656 10.7222L7.29989 11.2056C7.11656 11.2944 6.89433 11.2222 6.80545 11.0389L6.24989 9.91666C6.161 9.73333 6.23322 9.51111 6.41656 9.42222L7.38878 8.94444L6.43878 7.01666L7.48878 6.5C7.71656 7.3 8.361 7.95555 9.21656 8.17222C9.84434 8.32777 10.4999 8.22222 11.0554 7.87777C11.3721 8.41666 11.8943 8.83333 12.5443 8.99444C13.1999 9.15555 13.8554 9.03889 14.3888 8.70555C14.6166 9.09444 14.9499 9.41666 15.3666 9.63333L9.211 12.6667L9.21656 12.6556Z" fill="#232323"/>
<path d="M15.3666 9.62222L9.21109 12.6556L8.26109 10.7222L6.96109 11.3722L6.07776 9.57778L7.38331 8.93889L6.43331 7.01111L7.48331 6.49445C7.71109 7.29445 8.35554 7.95 9.21109 8.16667C9.83331 8.31667 10.4778 8.22222 11.0278 7.88889C11.0333 7.88333 11.0444 7.87778 11.05 7.87222C11.3666 8.41111 11.8889 8.82778 12.5444 8.98889C13.1944 9.15 13.8555 9.02778 14.3889 8.7C14.6166 9.08333 14.95 9.41111 15.3666 9.62222Z" fill="#5094E5"/>
</svg>
