<svg width="20" height="20" viewBox="0 0 20 20" fill="none" xmlns="http://www.w3.org/2000/svg">
<mask id="mask0_3_472" style="mask-type:alpha" maskUnits="userSpaceOnUse" x="0" y="0" width="20" height="20">
<rect width="20" height="20" fill="#D9D9D9"/>
</mask>
<g mask="url(#mask0_3_472)">
<path d="M9.06571 12.4135C9.34776 12.6816 9.69418 12.8013 10.105 12.7724C10.5157 12.7436 10.8162 12.5892 11.0064 12.3093L14.1175 7.85756C14.2229 7.70574 14.2094 7.56359 14.0769 7.4311C13.9444 7.29863 13.8021 7.28498 13.65 7.39015L9.18819 10.4988C8.89073 10.6994 8.72544 11.0016 8.69231 11.4055C8.6592 11.8093 8.78367 12.1453 9.06571 12.4135ZM10.0208 4.41669C10.5967 4.41669 11.1205 4.46984 11.5921 4.57615C12.0638 4.68245 12.5088 4.82499 12.927 5.00375C13.0686 5.0579 13.1223 5.15242 13.0881 5.28729C13.054 5.42217 12.996 5.5497 12.9142 5.6699C12.8186 5.79702 12.7289 5.88249 12.645 5.92629C12.5612 5.9701 12.4474 5.96668 12.3038 5.91604C11.9635 5.77331 11.6082 5.66828 11.238 5.60096C10.8678 5.53365 10.4655 5.5 10.0311 5.5C8.21869 5.5 6.67708 6.14931 5.40625 7.44792C4.13542 8.74653 3.5 10.2639 3.5 12C3.5 12.5278 3.53819 12.9618 3.61458 13.3021C3.69097 13.6424 3.8125 14.0417 3.97917 14.5H16C16.1806 14.0417 16.309 13.6215 16.3854 13.2396C16.4618 12.8576 16.5 12.4444 16.5 12C16.5 11.5235 16.4434 11.0192 16.3301 10.4872C16.2169 9.95511 16.0417 9.45671 15.8045 8.99196C15.7233 8.85628 15.6955 8.71099 15.7211 8.55608C15.7468 8.40117 15.8261 8.27922 15.959 8.19025C16.0825 8.10936 16.2182 8.08788 16.3662 8.12581C16.5141 8.16373 16.6287 8.25854 16.7099 8.41025C17.0197 8.98932 17.2441 9.57399 17.383 10.1643C17.5219 10.7545 17.5886 11.3579 17.5833 11.9744C17.578 12.6453 17.5243 13.2193 17.4223 13.6963C17.3202 14.1733 17.1453 14.6287 16.8974 15.0625C16.8013 15.2291 16.6776 15.3576 16.5264 15.4479C16.3753 15.5382 16.1998 15.5833 16 15.5833H4C3.80556 15.5833 3.63408 15.5368 3.48558 15.4439C3.33708 15.3509 3.20942 15.2131 3.10258 15.0304C2.88143 14.6554 2.71183 14.2268 2.59377 13.7444C2.47571 13.262 2.41669 12.6667 2.41669 11.9583C2.41669 10.9152 2.61626 9.93438 3.01542 9.01598C3.41457 8.09758 3.9541 7.29908 4.634 6.62048C5.3139 5.94188 6.11897 5.40494 7.04921 5.00965C7.97944 4.61434 8.96999 4.41669 10.0208 4.41669Z" fill="#232323"/>
</g>
</svg>
