<svg width="20" height="20" viewBox="0 0 20 20" fill="none" xmlns="http://www.w3.org/2000/svg">
<mask id="mask0_3_469" style="mask-type:alpha" maskUnits="userSpaceOnUse" x="0" y="0" width="20" height="20">
<rect width="20" height="20" fill="#D9D9D9"/>
</mask>
<g mask="url(#mask0_3_469)">
<path d="M6.66987 16.5H13.3301V14C13.3301 13.0652 13.0088 12.2711 12.3662 11.6178C11.7236 10.9645 10.9348 10.6378 10 10.6378C9.06517 10.6378 8.27644 10.9648 7.63381 11.6187C6.99119 12.2726 6.66987 13.0664 6.66987 14V16.5ZM10 9.36219C10.9348 9.36219 11.7236 9.03523 12.3662 8.38131C13.0088 7.7274 13.3301 6.93363 13.3301 6V3.5H6.66987V6C6.66987 6.93483 6.99119 7.7289 7.63381 8.38221C8.27644 9.03553 9.06517 9.36219 10 9.36219ZM4.96442 17.5833C4.81107 17.5833 4.68144 17.5318 4.57554 17.4288C4.46964 17.3257 4.41669 17.1981 4.41669 17.0457C4.41669 16.8934 4.4686 16.7644 4.57242 16.6586C4.67624 16.5529 4.80488 16.5 4.95835 16.5H5.58656V14C5.58656 13.0897 5.83977 12.2706 6.34619 11.5425C6.8526 10.8144 7.52249 10.3002 8.35583 10C7.53637 9.69446 6.86996 9.17897 6.3566 8.45354C5.84324 7.72811 5.58656 6.91026 5.58656 6V3.5H4.95835C4.80488 3.5 4.67624 3.44849 4.57242 3.34546C4.4686 3.24243 4.41669 3.11476 4.41669 2.96246C4.41669 2.81015 4.46856 2.68112 4.57231 2.57535C4.67605 2.46958 4.80459 2.41669 4.95794 2.41669H15.0356C15.1889 2.41669 15.3186 2.46821 15.4245 2.57125C15.5304 2.67428 15.5833 2.80194 15.5833 2.95425C15.5833 3.10656 15.5314 3.23559 15.4276 3.34135C15.3238 3.44712 15.1951 3.5 15.0416 3.5H14.4134V6C14.4134 6.91026 14.1568 7.72811 13.6434 8.45354C13.13 9.17897 12.4636 9.69446 11.6442 10C12.4775 10.3002 13.1474 10.8144 13.6538 11.5425C14.1602 12.2706 14.4134 13.0897 14.4134 14V16.5H15.0416C15.1951 16.5 15.3238 16.5515 15.4276 16.6545C15.5314 16.7576 15.5833 16.8852 15.5833 17.0375C15.5833 17.1898 15.5314 17.3189 15.4277 17.4246C15.324 17.5304 15.1954 17.5833 15.0421 17.5833H4.96442Z" fill="#232323"/>
</g>
</svg>
