<svg width="20" height="20" viewBox="0 0 20 20" fill="none" xmlns="http://www.w3.org/2000/svg">
<mask id="mask0_3_466" style="mask-type:alpha" maskUnits="userSpaceOnUse" x="0" y="0" width="20" height="20">
<rect width="20" height="20" fill="#D9D9D9"/>
</mask>
<g mask="url(#mask0_3_466)">
<path d="M9.99746 17.5833C8.95924 17.5833 7.97921 17.3844 7.0574 16.9866C6.13558 16.5889 5.33056 16.0459 4.64233 15.3577C3.95412 14.6694 3.41113 13.8644 3.01335 12.9426C2.61558 12.0208 2.41669 11.0408 2.41669 10.0025C2.41669 8.95165 2.61601 7.96724 3.01465 7.04929C3.41327 6.13136 3.95588 5.32909 4.64248 4.64248C5.32909 3.95588 6.13398 3.41327 7.05715 3.01465C7.98033 2.61601 8.96041 2.41669 9.9974 2.41669C11.047 2.41669 12.0311 2.61601 12.9497 3.01465C13.8683 3.41327 14.6709 3.95588 15.3575 4.64248C16.0441 5.32909 16.5867 6.13136 16.9854 7.04929C17.384 7.96724 17.5833 8.95165 17.5833 10.0025C17.5833 11.0408 17.384 12.0212 16.9854 12.9437C16.5867 13.8663 16.0441 14.6709 15.3575 15.3575C14.6709 16.0441 13.8686 16.5867 12.9507 16.9854C12.0328 17.384 11.0483 17.5833 9.99746 17.5833ZM10 13.2084C10.8013 13.2084 11.5892 13.3301 12.3638 13.5737C13.1383 13.8173 13.8525 14.1742 14.5064 14.6443C15.1709 14.0663 15.6693 13.3686 16.0016 12.5512C16.3339 11.7339 16.5 10.8835 16.5 10C16.5 8.19444 15.8681 6.65972 14.6042 5.39583C13.3403 4.13194 11.8056 3.5 10 3.5C8.19444 3.5 6.65972 4.13194 5.39583 5.39583C4.13194 6.65972 3.5 8.19444 3.5 10C3.5 10.8846 3.664 11.734 3.992 12.5481C4.31999 13.3622 4.82052 14.0609 5.4936 14.6443C6.16134 14.175 6.87902 13.8183 7.64665 13.5744C8.41427 13.3304 9.19872 13.2084 10 13.2084ZM10.0012 14.2916C9.3989 14.2916 8.76922 14.3969 8.11217 14.6074C7.45511 14.8178 6.86751 15.0726 6.34935 15.3718C6.85683 15.687 7.44065 15.9538 8.10081 16.1723C8.76096 16.3908 9.39424 16.5 10.0006 16.5C10.6071 16.5 11.2401 16.3908 11.8999 16.1723C12.5596 15.9538 13.1432 15.687 13.6506 15.3718C13.1325 15.0726 12.5453 14.8178 11.889 14.6074C11.2328 14.3969 10.6035 14.2916 10.0012 14.2916ZM6.01023 8.91988C6.19892 8.91988 6.35603 8.8571 6.48156 8.73156C6.6071 8.60603 6.66987 8.44892 6.66987 8.26023C6.66987 8.07155 6.6071 7.91103 6.48156 7.77867C6.35603 7.64631 6.19892 7.58013 6.01023 7.58013C5.82155 7.58013 5.66103 7.64631 5.52867 7.77867C5.39631 7.91103 5.33012 8.07155 5.33012 8.26023C5.33012 8.44892 5.39631 8.60603 5.52867 8.73156C5.66103 8.8571 5.82155 8.91988 6.01023 8.91988ZM8.4956 6.66988C8.68016 6.66988 8.83867 6.6071 8.97115 6.48156C9.10363 6.35603 9.16987 6.19892 9.16987 6.01023C9.16987 5.82155 9.1051 5.66103 8.97554 5.52867C8.84599 5.39631 8.68894 5.33013 8.5044 5.33013C8.31984 5.33013 8.16133 5.39631 8.02885 5.52867C7.89637 5.66103 7.83012 5.82155 7.83012 6.01023C7.83012 6.19892 7.8949 6.35603 8.02446 6.48156C8.15401 6.6071 8.31106 6.66988 8.4956 6.66988ZM13.9898 8.91988C14.1785 8.91988 14.339 8.8571 14.4713 8.73156C14.6037 8.60603 14.6699 8.44892 14.6699 8.26023C14.6699 8.07155 14.6037 7.91103 14.4713 7.77867C14.339 7.64631 14.1785 7.58013 13.9898 7.58013C13.8011 7.58013 13.644 7.64631 13.5184 7.77867C13.3929 7.91103 13.3301 8.07155 13.3301 8.26023C13.3301 8.44892 13.3929 8.60603 13.5184 8.73156C13.644 8.8571 13.8011 8.91988 13.9898 8.91988ZM10.0044 11.2916C10.3647 11.2916 10.6693 11.1656 10.9182 10.9136C11.1672 10.6615 11.2916 10.3552 11.2916 9.99463C11.2916 9.83154 11.2633 9.67415 11.2067 9.52244C11.1501 9.37073 11.0635 9.23505 10.9471 9.1154L12.1891 6.04165C12.2457 5.90597 12.2458 5.76853 12.1893 5.62933C12.1329 5.49014 12.0378 5.3904 11.9041 5.33013C11.764 5.27351 11.6248 5.2743 11.4865 5.33248C11.3482 5.39067 11.2523 5.49138 11.1987 5.6346L9.91987 8.72919C9.57693 8.74201 9.28927 8.87139 9.0569 9.11733C8.82453 9.36328 8.70835 9.66001 8.70835 10.0075C8.70835 10.3658 8.83429 10.6693 9.08617 10.9183C9.33804 11.1672 9.64412 11.2916 10.0044 11.2916Z" fill="#232323"/>
</g>
</svg>
