<svg width="16" height="16" viewBox="0 0 16 16" fill="none" xmlns="http://www.w3.org/2000/svg">
<mask id="mask0_3_379" style="mask-type:alpha" maskUnits="userSpaceOnUse" x="0" y="0" width="16" height="16">
<rect width="16" height="16" fill="#D9D9D9"/>
</mask>
<g mask="url(#mask0_3_379)">
<path d="M7.94009 12.3526L10.1185 7.37285C10.1625 7.28189 10.1573 7.19763 10.1028 7.12009C10.0482 7.04254 9.9738 7.00377 9.87945 7.00377H8.36665V3.6501C8.36665 3.5726 8.3299 3.52841 8.2564 3.51754C8.1829 3.50666 8.13408 3.53161 8.10992 3.5924L5.93154 8.56764C5.88746 8.65886 5.89269 8.74324 5.94724 8.82077C6.00177 8.89831 6.07621 8.93709 6.17055 8.93709H7.68335V12.2951C7.68335 12.3723 7.7201 12.4163 7.7936 12.4272C7.8671 12.438 7.91593 12.4132 7.94009 12.3526ZM8.00112 14.3332C7.12516 14.3332 6.30181 14.167 5.53105 13.8346C4.76029 13.5021 4.08983 13.051 3.51969 12.4811C2.94953 11.9112 2.49816 11.241 2.16557 10.4706C1.83298 9.70018 1.66669 8.87699 1.66669 8.00104C1.66669 7.12508 1.83291 6.30173 2.16535 5.53097C2.4978 4.7602 2.94896 4.08975 3.51885 3.5196C4.08875 2.94945 4.75892 2.49808 5.52934 2.16549C6.29975 1.8329 7.12293 1.6666 7.99889 1.6666C8.87484 1.6666 9.6982 1.83283 10.469 2.16527C11.2397 2.49771 11.9102 2.94888 12.4803 3.51877C13.0505 4.08867 13.5018 4.75883 13.8344 5.52925C14.167 6.29966 14.3333 7.12285 14.3333 7.9988C14.3333 8.87476 14.1671 9.69811 13.8347 10.4689C13.5022 11.2396 13.051 11.9101 12.4812 12.4802C11.9113 13.0504 11.2411 13.5018 10.4707 13.8344C9.70026 14.1669 8.87708 14.3332 8.00112 14.3332ZM7.99604 13.2666C9.45424 13.2666 10.6972 12.754 11.725 11.7289C12.7528 10.7038 13.2667 9.4621 13.2667 8.00389C13.2667 6.54569 12.7541 5.3027 11.729 4.27492C10.7038 3.24714 9.46218 2.73325 8.00397 2.73325C6.54577 2.73325 5.30278 3.24582 4.275 4.27095C3.24723 5.29608 2.73334 6.53774 2.73334 7.99595C2.73334 9.45415 3.2459 10.6971 4.27104 11.7249C5.29616 12.7527 6.53783 13.2666 7.99604 13.2666Z" fill="#66C122"/>
</g>
</svg>
