<svg width="20" height="20" viewBox="0 0 20 20" fill="none" xmlns="http://www.w3.org/2000/svg">
<path d="M2.46664 18.3889V3.39445C2.46664 2.89445 2.63887 2.47223 2.98331 2.12778C3.32776 1.78334 3.74998 1.61111 4.24998 1.61111H9.56109C10.0611 1.61111 10.4833 1.78334 10.8278 2.12778C11.1722 2.47223 11.3444 2.89445 11.3444 3.39445V9.80556H12.2944C12.7833 9.80556 13.2055 9.97778 13.5555 10.3278C13.9055 10.6778 14.0778 11.0944 14.0778 11.5889V16.0667C14.0778 16.3833 14.1889 16.6556 14.4111 16.8722C14.6333 17.0944 14.9 17.2056 15.2166 17.2056C15.5333 17.2056 15.8055 17.0944 16.0222 16.8722C16.2444 16.65 16.3555 16.3833 16.3555 16.0667V9.15C16.2055 9.23889 16.05 9.3 15.8889 9.33334C15.7222 9.36667 15.55 9.38334 15.3722 9.38334C14.7666 9.38334 14.2555 9.17223 13.8389 8.75556C13.4222 8.33889 13.2111 7.82778 13.2111 7.22223C13.2111 6.73334 13.35 6.3 13.6278 5.91667C13.9055 5.53334 14.2722 5.27778 14.7333 5.15L12.5111 2.92778L13.3389 2.1L16.8555 5.55556C17.0778 5.77778 17.2444 6.03334 17.3611 6.32223C17.4778 6.61111 17.5389 6.91111 17.5389 7.21667V16.0611C17.5389 16.7111 17.3166 17.2556 16.8666 17.7056C16.4222 18.1556 15.8722 18.3778 15.2222 18.3778C14.5722 18.3778 14.0278 18.1556 13.5778 17.7056C13.1278 17.2556 12.9055 16.7111 12.9055 16.0611V11.2778C12.9055 11.1889 12.8778 11.1167 12.8222 11.0611C12.7666 11.0056 12.6944 10.9778 12.6055 10.9778H11.3555V18.3778H2.4722L2.46664 18.3889ZM3.94442 16.9056H9.86664V9.75H3.94442V16.9056ZM3.94442 8.27222H9.86664V3.39445C9.86664 3.31667 9.83331 3.25 9.7722 3.18334C9.71109 3.12223 9.63887 3.08889 9.56109 3.08889H4.24998C4.1722 3.08889 4.10553 3.12223 4.03887 3.18334C3.97776 3.24445 3.94442 3.31667 3.94442 3.39445V8.27222ZM15.3722 8.21667C15.65 8.21667 15.8889 8.12222 16.0778 7.93334C16.2666 7.74445 16.3611 7.51111 16.3611 7.22778C16.3611 6.94445 16.2666 6.71111 16.0778 6.52223C15.8889 6.33334 15.6555 6.23889 15.3722 6.23889C15.0889 6.23889 14.8555 6.33334 14.6666 6.52223C14.4778 6.71111 14.3833 6.94445 14.3833 7.22778C14.3833 7.51111 14.4778 7.74445 14.6666 7.93334C14.8555 8.12222 15.0889 8.21667 15.3722 8.21667Z" fill="#232323"/>
<path d="M9.86665 9.75555H3.94443V16.9111H9.86665V9.75555Z" fill="#34B593"/>
</svg>
